<svg xmlns="http://www.w3.org/2000/svg" viewBox="0 0 660.28 94.08"><g id="Layer_2" data-name="Layer 2"><g id="Layer_1-2" data-name="Layer 1"><path d="M124.81,23.36h17.66c14.88,0,25.16,10.22,25.16,23.54V47c0,13.32-10.28,23.67-25.16,23.67H124.81Zm17.66,39.78c9.94,0,16.44-6.7,16.44-16V47c0-9.27-6.5-16.1-16.44-16.1h-9.33v32.2Z" style="fill:#084499"/><path d="M177.51,23.36h35.11V30.8H185.83V43.11h23.74v7.45H185.83V63.27H213v7.44H177.51Z" style="fill:#084499"/><path d="M219.64,47.17V47c0-13.46,10.08-24.49,24.42-24.49,8.73,0,14,3.05,18.54,7.37l-5.35,6.16c-3.79-3.52-7.84-5.89-13.26-5.89-9.06,0-15.62,7.44-15.62,16.71V47c0,9.27,6.56,16.84,15.62,16.84,5.82,0,9.54-2.36,13.6-6.15l5.34,5.41c-4.93,5.14-10.35,8.39-19.21,8.39C229.92,71.53,219.64,60.77,219.64,47.17Z" style="fill:#084499"/><path d="M271.3,23.36h8.32V70.71H271.3Z" style="fill:#084499"/><path d="M288.73,63.81l5-6c4.53,3.92,9.07,6.16,14.95,6.16,5.14,0,8.39-2.37,8.39-5.95v-.14c0-3.38-1.9-5.21-10.69-7.24-10.08-2.44-15.76-5.41-15.76-14.14v-.13c0-8.12,6.76-13.73,16.17-13.73A26.21,26.21,0,0,1,324,28.64l-4.47,6.29c-4.26-3.18-8.52-4.87-12.85-4.87-4.87,0-7.71,2.5-7.71,5.61v.14c0,3.65,2.16,5.27,11.23,7.44,10,2.44,15.22,6,15.22,13.87v.13c0,8.86-7,14.14-16.91,14.14A29.13,29.13,0,0,1,288.73,63.81Z" style="fill:#084499"/><path d="M335.43,23.36h8.32V70.71h-8.32Z" style="fill:#084499"/><path d="M353.83,47.17V47c0-13.33,10.28-24.49,24.82-24.49s24.69,11,24.69,24.35V47c0,13.32-10.28,24.49-24.82,24.49S353.83,60.5,353.83,47.17Zm40.79,0V47c0-9.2-6.7-16.85-16.1-16.85s-16,7.51-16,16.71V47c0,9.2,6.7,16.84,16.1,16.84S394.62,56.37,394.62,47.17Z" style="fill:#084499"/><path d="M413.36,23.36h7.71L446.43,56.1V23.36h8.19V70.71h-7L421.54,37V70.71h-8.18Z" style="fill:#084499"/><path d="M487.07,23.36h8.33V63.14h24.89v7.57H487.07Z" style="fill:#084499"/><path d="M528,23.36h35.11V30.8H536.36V43.11h23.75v7.45H536.36V63.27h27.13v7.44H528Z" style="fill:#084499"/><path d="M573.51,23.36h7.71L606.58,56.1V23.36h8.19V70.71h-7L581.69,37V70.71h-8.18Z" style="fill:#084499"/><path d="M623.61,63.81l5-6c4.53,3.92,9.06,6.16,15,6.16,5.14,0,8.39-2.37,8.39-5.95v-.14c0-3.38-1.9-5.21-10.69-7.24-10.08-2.44-15.76-5.41-15.76-14.14v-.13c0-8.12,6.76-13.73,16.16-13.73a26.24,26.24,0,0,1,17.19,5.95l-4.47,6.29c-4.26-3.18-8.52-4.87-12.85-4.87-4.87,0-7.71,2.5-7.71,5.61v.14c0,3.65,2.16,5.27,11.23,7.44,10,2.44,15.22,6,15.22,13.87v.13c0,8.86-7,14.14-16.91,14.14A29.17,29.17,0,0,1,623.61,63.81Z" style="fill:#084499"/><path d="M93.56,43.77C93.56,25.08,76.07,1.71,50,0c0,8.3,0,18.58,0,23.79,0,9,9,19.93,21.14,20,6.37,0,12.92,0,22.41,0" style="fill:#084499"/><path d="M93.56,50.31C93.56,69,76.07,92.37,50,94.08c0-8.31,0-18.59,0-23.79,0-9,9-19.94,21.14-20,6.37,0,12.92,0,22.41,0" style="fill:#084499"/><path d="M0,43.77C0,25.08,17.49,1.71,43.55,0c0,8.3,0,18.58,0,23.79,0,9-9,19.93-21.14,20-6.37,0-12.92,0-22.41,0" style="fill:#084499"/><path d="M0,50.31C0,69,17.49,92.37,43.55,94.08c0-8.31,0-18.59,0-23.79,0-9-9-19.94-21.14-20-6.37,0-12.92,0-22.41,0" style="fill:#084499"/></g></g></svg>